<svg id="Layer_1" data-name="Layer 1" xmlns="http://www.w3.org/2000/svg" viewBox="0 0 149.75 46"><defs><style>.cls-1{fill:#595b5b;}.cls-2{fill:#4f4f4f;}.cls-3{fill:#676767;}.cls-4{fill:#777875;}.cls-5{fill:#c9c9c9;}</style></defs><title>AVION 3</title><path class="cls-1" d="M44.74,49.47,67.15,27H174.82s9.11,22.69,0,45H67.24Z" transform="translate(-44.03 -26.47)"/><path class="cls-2" d="M175.16,72.47H67l-23-23,22.91-23H175.16l.13.31c.09.23,9.07,23.13,0,45.38Zm-107.71-1h107c8.14-20.36,1-41.21,0-44H67.36l-21.91,22Z" transform="translate(-44.03 -26.47)"/><path class="cls-3" d="M50.2,49.39,70.92,29.93h99.54s8.41,19.62,0,38.93H71Z" transform="translate(-44.03 -26.47)"/><rect class="cls-4" x="44.15" y="8.87" width="60.59" height="28.25"/><rect class="cls-5" x="116.35" y="8.8" width="3.77" height="28.25"/><rect class="cls-5" x="24.93" y="13.09" width="8.3" height="19.81"/><rect class="cls-5" x="6.74" y="22.5" width="25.76" height="1"/><rect class="cls-5" x="119.92" y="16.31" width="29.82" height="2"/><rect class="cls-5" x="119.92" y="27.69" width="29.82" height="2"/><rect class="cls-5" x="144.05" y="27.19" width="5.7" height="3"/><rect class="cls-5" x="144.05" y="15.81" width="5.7" height="3"/></svg>