<svg id="Layer_1" data-name="Layer 1" xmlns="http://www.w3.org/2000/svg" viewBox="0 0 194.26 46"><defs><style>.cls-1{fill:#595b5b;}.cls-2{fill:#4f4f4f;}.cls-3{fill:#676767;}.cls-4{fill:#777875;}.cls-5{fill:#c9c9c9;}</style></defs><title>AVION 4</title><path class="cls-1" d="M196.72,76.76H44.79L22.38,54.26l22.5-22.5H196.72s11.31,19.86,0,45" transform="translate(-21.67 -31.26)"/><path class="cls-2" d="M197.05,77.26H44.58l-22.91-23,23-23H197l.14.25c.11.2,11.29,20.37,0,45.45Zm-152-1H196.4c10.17-23,1.25-41.63,0-44H45.09l-22,22Z" transform="translate(-21.67 -31.26)"/><path class="cls-3" d="M191.69,74H48.9L27.84,54.65,49,35.35h142.7s10.62,17,0,38.61" transform="translate(-21.67 -31.26)"/><rect class="cls-4" x="74.44" y="8.8" width="90.88" height="28.25"/><rect class="cls-5" x="67.52" y="8.63" width="3.77" height="28.25"/><rect class="cls-5" x="55.3" y="24.08" width="3.77" height="14.13"/><rect class="cls-5" x="55.3" y="7.63" width="3.77" height="14.13"/><rect class="cls-5" x="24.93" y="13.02" width="8.3" height="19.81"/><rect class="cls-5" x="6.74" y="22.9" width="24.76" height="1"/><rect class="cls-5" x="165.16" y="16.31" width="28.82" height="2"/><rect class="cls-5" x="164.44" y="27.69" width="29.82" height="2"/><rect class="cls-5" x="71.66" y="31.58" width="2" height="16.93" transform="translate(-19.84 52.01) rotate(-60.26)"/><rect class="cls-5" x="69.67" y="35.23" width="2" height="18.87" transform="translate(-24.84 52.6) rotate(-60.26)"/><rect class="cls-5" x="64.19" y="68.26" width="16.93" height="2" transform="translate(-46.46 13.91) rotate(-29.74)"/><rect class="cls-5" x="60.8" y="63.85" width="19.14" height="2" transform="translate(-44.57 12.2) rotate(-29.74)"/><rect class="cls-5" x="60.63" y="67.28" width="5.7" height="3" transform="translate(-47.56 9.7) rotate(-30)"/><rect class="cls-5" x="61.98" y="37.71" width="3" height="5.7" transform="translate(-24.9 44.29) rotate(-60.26)"/><rect class="cls-5" x="64.32" y="33.3" width="3" height="5.7" transform="translate(-19.89 44.1) rotate(-60.25)"/><rect class="cls-5" x="62.97" y="71.66" width="5.7" height="3" transform="translate(-49.44 11.46) rotate(-30)"/><rect class="cls-5" x="188.57" y="27.19" width="5.7" height="3"/><rect class="cls-5" x="188.29" y="15.81" width="5.7" height="3"/></svg>