<svg id="Layer_1" data-name="Layer 1" xmlns="http://www.w3.org/2000/svg" viewBox="0 0 46 149.75"><defs><style>.cls-1{fill:#595b5b;}.cls-2{fill:#4f4f4f;}.cls-3{fill:#676767;}.cls-4{fill:#777875;}.cls-5{fill:#c9c9c9;}</style></defs><title>AVION 32</title><path class="cls-1" d="M53.63,46.8l22.5,22.41V176.89s-22.69,9.1-45,0V69.3Z" transform="translate(-30.63 -46.1)"/><path class="cls-2" d="M30.63,177.22V69.09l23-23L76.63,69V177.22l-.32.13c-.22.09-23.13,9.07-45.37,0Zm1-107.71v107c20.36,8.14,41.21,1,44,0V69.42l-22-21.91Z" transform="translate(-30.63 -46.1)"/><path class="cls-3" d="M53.7,52.26,73.17,73v99.54s-19.63,8.41-38.93,0V73.06Z" transform="translate(-30.63 -46.1)"/><rect class="cls-4" x="8.87" y="44.15" width="28.25" height="60.59"/><rect class="cls-5" x="8.95" y="116.35" width="28.25" height="3.77"/><rect class="cls-5" x="13.09" y="24.93" width="19.81" height="8.3"/><rect class="cls-5" x="22.5" y="6.74" width="1" height="25.76"/><rect class="cls-5" x="27.69" y="119.92" width="2" height="29.82"/><rect class="cls-5" x="16.31" y="119.92" width="2" height="29.82"/><rect class="cls-5" x="15.81" y="144.05" width="3" height="5.7"/><rect class="cls-5" x="27.19" y="144.05" width="3" height="5.7"/></svg>