<svg id="Layer_1" data-name="Layer 1" xmlns="http://www.w3.org/2000/svg" viewBox="0 0 104.74 46"><defs><style>.cls-1{fill:#595b5b;}.cls-2{fill:#4f4f4f;}.cls-3{fill:#676767;}.cls-4{fill:#c9c9c9;}.cls-5{fill:#777875;}</style></defs><title>AVION 2</title><path class="cls-1" d="M64.21,50.87l22.5-22.5h61.44s12.25,22.06,0,45H86.63Z" transform="translate(-63.51 -27.87)"/><path class="cls-2" d="M148.45,73.87h-62l-22.91-23,23-23h61.94l.14.26c.12.22,12.23,22.56,0,45.47Zm-61.62-1h61c11.05-21,1.29-41.49,0-44H86.92l-22,22Z" transform="translate(-63.51 -27.87)"/><path class="cls-3" d="M69.67,51.26,89.75,32.59h54.8s10.93,18.31,0,37.35H89.67Z" transform="translate(-63.51 -27.87)"/><rect class="cls-4" x="24.93" y="12.7" width="8.3" height="19.81"/><rect class="cls-5" x="44.15" y="8.87" width="30.76" height="28.25"/><rect class="cls-4" x="6.37" y="22.9" width="25.49" height="1"/><rect class="cls-4" x="74.91" y="16.31" width="29.82" height="2"/><rect class="cls-4" x="74.91" y="27.69" width="29.82" height="2"/><rect class="cls-4" x="99.04" y="27.19" width="5.7" height="3"/><rect class="cls-4" x="99.04" y="15.81" width="5.7" height="3"/></svg>