<svg id="Layer_1" data-name="Layer 1" xmlns="http://www.w3.org/2000/svg" viewBox="0 0 46 104.74"><defs><style>.cls-1{fill:#595b5b;}.cls-2{fill:#4f4f4f;}.cls-3{fill:#676767;}.cls-4{fill:#c9c9c9;}.cls-5{fill:#777875;}</style></defs><title>AVION 22</title><path class="cls-1" d="M54.12,69.21l22.5,22.5v61.44s-22.05,12.24-45,0V91.62Z" transform="translate(-31.12 -68.5)"/><path class="cls-2" d="M31.12,153.45v-62l23-22.91,23,23v61.94l-.25.14c-.23.13-22.57,12.24-45.48,0Zm1-61.62v61c21,11.06,41.49,1.29,44,0V91.91l-22-22Z" transform="translate(-31.12 -68.5)"/><path class="cls-3" d="M53.73,74.67,72.41,94.74v54.81s-18.31,10.92-37.36,0V94.66Z" transform="translate(-31.12 -68.5)"/><rect class="cls-4" x="13.48" y="24.93" width="19.81" height="8.3"/><rect class="cls-5" x="8.87" y="44.15" width="28.25" height="30.76"/><rect class="cls-4" x="22.11" y="6.37" width="1" height="25.49"/><rect class="cls-4" x="27.69" y="74.91" width="2" height="29.82"/><rect class="cls-4" x="16.31" y="74.91" width="2" height="29.82"/><rect class="cls-4" x="15.81" y="99.04" width="3" height="5.7"/><rect class="cls-4" x="27.19" y="99.04" width="3" height="5.7"/></svg>