<?xml version="1.0" encoding="utf-8"?>
<!-- Generator: Adobe Illustrator 22.0.1, SVG Export Plug-In . SVG Version: 6.00 Build 0)  -->
<svg version="1.1" id="Layer_1" xmlns="http://www.w3.org/2000/svg" xmlns:xlink="http://www.w3.org/1999/xlink" x="0px" y="0px"
	 viewBox="0 0 54 208.6" style="enable-background:new 0 0 54 208.6;" xml:space="preserve">
<style type="text/css">
	.st0{fill:#595B5B;}
	.st1{fill:#4F4F4F;}
	.st2{fill:#676767;}
	.st3{fill:#777875;}
	.st4{fill:#C9C9C9;}
</style>
<g>
	<g>
		<path class="st0" d="M2.5,183V31.1L25,8.7l22.5,22.5V183C47.5,183,27.6,194.3,2.5,183"/>
		<path class="st1" d="M2,183.4V30.9L25,8l23,23v152.3l-0.3,0.1c-0.2,0.1-20.4,11.3-45.5,0L2,183.4z M3,31.3v151.4
			c23,10.2,41.6,1.3,44,0V31.4l-22-22L3,31.3z"/>
	</g>
	<path class="st2" d="M5.3,178V35.2l19.3-21.1l19.3,21.1v142.7C43.9,178,26.9,188.6,5.3,178"/>
	<rect x="11" y="82.4" class="st3" width="28.3" height="90.9"/>
	<rect x="11.1" y="75.5" class="st4" width="28.3" height="3.8"/>
	<rect x="9.8" y="63.3" class="st4" width="14.1" height="3.8"/>
	<rect x="26.2" y="63.3" class="st4" width="14.1" height="3.8"/>
	<rect x="15.2" y="32.9" class="st4" width="19.8" height="8.3"/>
	<rect x="24.1" y="14.7" class="st4" width="1" height="24.8"/>
	<rect x="29.7" y="173.1" class="st4" width="2" height="28.8"/>
	<rect x="18.3" y="172.4" class="st4" width="2" height="29.8"/>
	<rect x="30.8" y="58.1" transform="matrix(0.4961 -0.8683 0.8683 0.4961 -31.5124 63.808)" class="st4" width="16.9" height="2"/>
	<rect x="25.2" y="56" transform="matrix(0.4961 -0.8683 0.8683 0.4961 -31.9974 58.7904)" class="st4" width="18.9" height="2"/>
	<rect x="9" y="50.5" transform="matrix(0.8682 -0.4961 0.4961 0.8682 -27.9435 12.7266)" class="st4" width="2" height="16.9"/>
	<rect x="13.4" y="47.1" transform="matrix(0.8682 -0.4961 0.4961 0.8682 -26.226 14.6051)" class="st4" width="2" height="19.1"/>
	<rect x="9" y="46.9" transform="matrix(0.866 -0.5001 0.5001 0.866 -23.4823 11.9122)" class="st4" width="3" height="5.7"/>
	<rect x="35.9" y="48.3" transform="matrix(0.4961 -0.8683 0.8683 0.4961 -23.6953 58.7227)" class="st4" width="5.7" height="3"/>
	<rect x="40.3" y="50.6" transform="matrix(0.4962 -0.8682 0.8682 0.4962 -23.5262 63.6805)" class="st4" width="5.7" height="3"/>
	<rect x="4.6" y="49.3" transform="matrix(0.866 -0.5001 0.5001 0.866 -25.2705 10.0496)" class="st4" width="3" height="5.7"/>
	<rect x="17.8" y="196.5" class="st4" width="3" height="5.7"/>
	<rect x="29.2" y="196.3" class="st4" width="3" height="5.7"/>
</g>
</svg>
