<svg id="Layer_1" data-name="Layer 1" xmlns="http://www.w3.org/2000/svg" viewBox="0 0 24.46 27.17"><defs><style>.cls-1{fill:#fbe3c3;}.cls-2{fill:#e49f3b;}.cls-3,.cls-4{fill:none;stroke-miterlimit:10;stroke-width:0.5px;}.cls-3{stroke:#666766;}.cls-4{stroke:#fbe3c3;}</style></defs><title>EXPLOSION</title><path class="cls-1" d="M104.58,42.67s.28-2.93,2.78-1.52c0,0-.31-3.53,1.27-2.82,0,0,1.06-1.95,2.12-.1l1.06,1.86s1-2.32,2.29-2.66,1.41,1.07,2.29.72.71,1.64.71,1.88-.71,1.12-.71,1.12l-.7,1.52s4.93-.59,5.11,0,.35,1.65,0,2,.41.71.2,1.41,0,2.5-1.79,2.48-.7,1-.7,1,1,3.17-.36,3.17-.17.7-1.58,1.67-1.77,1.5-1.77,0-2.29-1.67-2.29-1.67-1.23,2.12-3.17,1.59a3.8,3.8,0,0,1-2.47-1.59s-3-2.11-2.82-4.76c0,0-1.94,0-.88-2.47,0,0-2.47-2.76.53-2.88" transform="translate(-99.98 -33.52)"/><path class="cls-2" d="M104.58,43.88s.28-2.94,2.78-1.53c0,0-.31-3.52,1.27-2.82,0,0,1.06-2,2.12-.09l1.06,1.85s1-2.31,2.29-2.65,1.41,1.07,2.29.71.71,1.64.71,1.88-.71,1.12-.71,1.12l-.7,1.53s4.93-.59,5.11,0,.35,1.64,0,2,.41.7.2,1.41,0,2.49-1.79,2.48-.7,1-.7,1,1,3.18-.36,3.18-.17.7-1.58,1.67-1.77,1.49-1.77,0S112.51,54,112.51,54s-1.23,2.11-3.17,1.58A3.81,3.81,0,0,1,106.87,54s-3-2.12-2.82-4.76c0,0-1.94,0-.88-2.47,0,0-2.47-2.77.53-2.88" transform="translate(-99.98 -33.52)"/><line class="cls-3" x1="4.66" y1="7.07" x2="1.72" y2="4.42"/><line class="cls-3" x1="11.64" y1="4.51" x2="11.64"/><line class="cls-3" x1="18.92" y1="7.95" x2="21.81" y2="6.19"/><line class="cls-3" x1="20.53" y1="16.41" x2="24.42" y2="17.14"/><line class="cls-3" x1="17.67" y1="22.16" x2="20.17" y2="25.58"/><line class="cls-3" x1="8.08" y1="22.66" x2="6.12" y2="27.07"/><line class="cls-3" x1="3.19" y1="16.95" x2="0.1" y2="18.3"/><path class="cls-4" d="M114.44,43.13s2.23.17,2.23,2" transform="translate(-99.98 -33.52)"/><path class="cls-4" d="M107.08,48s1.5-2.09,3.54-.88" transform="translate(-99.98 -33.52)"/><path class="cls-4" d="M110.47,47.1a1.79,1.79,0,0,1,2.31.65" transform="translate(-99.98 -33.52)"/></svg>