<svg id="Layer_1" data-name="Layer 1" xmlns="http://www.w3.org/2000/svg" viewBox="0 0 224.47 43.93"><defs><style>.cls-1{fill:#676767;}.cls-2{fill:#595b5b;}.cls-3{fill:#4f4f4f;}.cls-4{fill:#c9c9c9;}.cls-5{fill:#777875;}.cls-6{fill:#e8e8e8;}.cls-7{fill:#4d5056;}.cls-8{fill:#ddd;}</style></defs><title>PORTA AVIONES</title><path class="cls-1" d="M56.75,133.46h44.68l14.86,9.93,101-.12,18.47-9.81,45.47-.13q-.48-16.65-1-33.31l-163.6,0-14.54,14.34H56.75Z" transform="translate(-56.75 -99.46)"/><rect class="cls-2" x="9.9" y="23.42" width="49.64" height="1"/><path class="cls-2" d="M104.15,112.3,218.3,142.73l17.45-9.27L115.41,101.7Z" transform="translate(-56.75 -99.46)"/><path class="cls-3" d="M218.36,143.27l-115.2-30.71,12.11-11.41,121.85,32.16ZM105.15,112.05,218.24,142.2l16.15-8.58L115.55,102.26Z" transform="translate(-56.75 -99.46)"/><rect class="cls-4" x="64.95" y="35.99" width="8.64" height="4.4"/><rect class="cls-4" x="77.85" y="35.99" width="8.64" height="4.4"/><rect class="cls-4" x="89.73" y="35.99" width="8.64" height="4.4"/><rect class="cls-5" x="153.61" y="3.1" width="8.64" height="4.4"/><rect class="cls-4" x="196.54" y="2.69" width="22.88" height="9.6"/><rect class="cls-4" x="168.03" y="2.69" width="22.88" height="9.6"/><polygon class="cls-6" points="163.9 38.06 57.32 8.91 57.45 8.43 164.03 37.58 163.9 38.06"/><rect class="cls-7" x="222.47" width="2" height="33.48"/><rect class="cls-7" x="218.92" y="20.38" width="1" height="3.68"/><rect class="cls-7" x="218.92" y="26.29" width="1" height="3.68"/><rect class="cls-7" x="179.47" y="30.72" width="38.52" height="1"/><rect class="cls-4" x="190.33" y="137.54" width="1.28" height="1.28" transform="translate(-16.33 -142.66) rotate(14.42)"/><rect class="cls-4" x="193.71" y="138.41" width="1.28" height="1.28" transform="translate(-16.01 -143.48) rotate(14.42)"/><rect class="cls-4" x="196.9" y="139.23" width="1.28" height="1.28" transform="translate(-15.71 -144.24) rotate(14.42)"/><rect class="cls-4" x="180.06" y="134.9" width="1.28" height="1.28" transform="translate(-17.32 -140.19) rotate(14.42)"/><rect class="cls-4" x="183.43" y="135.77" width="1.28" height="1.28" transform="translate(-16.99 -141) rotate(14.42)"/><rect class="cls-4" x="186.62" y="136.59" width="1.28" height="1.28" transform="translate(-16.69 -141.77) rotate(14.42)"/><rect class="cls-4" x="137.68" y="104.59" width="1.28" height="1.28" transform="translate(-26.2 -130.59) rotate(14.42)"/><rect class="cls-4" x="141.06" y="105.46" width="1.28" height="1.28" transform="translate(-25.87 -131.4) rotate(14.42)"/><rect class="cls-4" x="144.25" y="106.28" width="1.28" height="1.28" transform="translate(-25.57 -132.17) rotate(14.42)"/><rect class="cls-4" x="127.4" y="101.95" width="1.28" height="1.28" transform="translate(-27.18 -128.11) rotate(14.42)"/><rect class="cls-4" x="130.78" y="102.82" width="1.28" height="1.28" transform="translate(-26.85 -128.93) rotate(14.42)"/><rect class="cls-4" x="133.97" y="103.64" width="1.28" height="1.28" transform="translate(-26.55 -129.7) rotate(14.42)"/><path class="cls-8" d="M58.9,120h-.56a2.64,2.64,0,0,1,.27-1,1.81,1.81,0,0,1,.54-.66,1.22,1.22,0,0,1,.7-.23,1.05,1.05,0,0,1,.73.28,1,1,0,0,1,.29.7.89.89,0,0,1-.26.63A.87.87,0,0,1,60,120a.88.88,0,0,1-.41-.1.92.92,0,0,1-.32-.25c-.06-.07-.1-.11-.14-.11s-.1,0-.14.12A.88.88,0,0,0,58.9,120Zm4.4-1.41,0,.46-1-.08a3.21,3.21,0,0,1,.37.52,2.85,2.85,0,0,1,.2.51h-.71a3.07,3.07,0,0,0-.35-.9.82.82,0,0,1-.15-.35.29.29,0,0,1,.08-.21.24.24,0,0,1,.19-.08H62Zm.38,0,1.66.15c0,.11,0,.17,0,.19l-.14,1a9.62,9.62,0,0,0-.07,1.29,4.59,4.59,0,0,0,0,.81,2.89,2.89,0,0,0,.18.65,2.79,2.79,0,0,1-.56-.23,2,2,0,0,1-.45-.35,2.6,2.6,0,0,1-.41-.53,2.44,2.44,0,0,1-.24-.59,5.72,5.72,0,0,1-.1-1.14A8.8,8.8,0,0,1,63.68,118.61Zm-1.61,1.8h.73a4.16,4.16,0,0,1-.08.87,2.61,2.61,0,0,1-.27.67,2,2,0,0,1-1.84,1,2.44,2.44,0,0,1-1.07-.23,1.83,1.83,0,0,1-.77-.66,2.43,2.43,0,0,1-.32-.69,2.76,2.76,0,0,1-.12-.79v-.16h.57a.73.73,0,0,0,.12.25.71.71,0,0,0,.22.15.94.94,0,0,0,.26.07l.35,0h1.28a1.41,1.41,0,0,0,.64-.11A.71.71,0,0,0,62.07,120.41Z" transform="translate(-56.75 -99.46)"/><path class="cls-8" d="M58.9,125.9h-.56a2.69,2.69,0,0,1,.27-1,1.86,1.86,0,0,1,.54-.65,1.22,1.22,0,0,1,.7-.23,1,1,0,0,1,.73.28.93.93,0,0,1,.29.7.85.85,0,0,1-.26.62.83.83,0,0,1-.62.26.88.88,0,0,1-.41-.1.8.8,0,0,1-.32-.24c-.06-.08-.1-.12-.14-.12s-.1,0-.14.12A.94.94,0,0,0,58.9,125.9Zm4.4-1.41,0,.46-1-.09a3.24,3.24,0,0,1,.37.53,2.36,2.36,0,0,1,.2.51h-.71a2.87,2.87,0,0,0-.35-.9.82.82,0,0,1-.15-.35.31.31,0,0,1,.08-.22.24.24,0,0,1,.19-.07H62Zm.38,0,1.66.14c0,.11,0,.18,0,.2l-.14,1a9.46,9.46,0,0,0-.07,1.28,4.46,4.46,0,0,0,0,.81,3,3,0,0,0,.18.66,2.79,2.79,0,0,1-.56-.23,2.29,2.29,0,0,1-.45-.35,2.65,2.65,0,0,1-.41-.54,2.38,2.38,0,0,1-.24-.58,5.91,5.91,0,0,1-.1-1.15A8.66,8.66,0,0,1,63.68,124.52Zm-1.61,1.8h.73a4.3,4.3,0,0,1-.08.87,2.77,2.77,0,0,1-.27.67,2,2,0,0,1-1.84,1,2.44,2.44,0,0,1-1.07-.23,2,2,0,0,1-.77-.66,2.37,2.37,0,0,1-.32-.7,2.71,2.71,0,0,1-.12-.79v-.15h.57a.67.67,0,0,0,.12.24.6.6,0,0,0,.22.16,1,1,0,0,0,.26.06l.35,0h1.28a1.44,1.44,0,0,0,.64-.1A.75.75,0,0,0,62.07,126.32Z" transform="translate(-56.75 -99.46)"/></svg>