<svg id="Layer_1" data-name="Layer 1" xmlns="http://www.w3.org/2000/svg" viewBox="0 0 352 131.64"><defs><style>.cls-1{fill:#3e4754;}.cls-2{fill:#2b464f;}.cls-3{fill:#3e6673;}.cls-4{fill:#333041;}.cls-5{fill:#ad1d12;}.cls-6{fill:#def1f1;}.cls-7{fill:#4579e2;}.cls-8{fill:#3461c1;}.cls-9{fill:#2d55aa;}</style></defs><title>warshipWithWaves</title><polygon class="cls-1" points="118.4 41.69 130.82 15.76 117.88 41.43 118.4 41.69"/><polygon class="cls-1" points="131.4 52.69 130.82 0 130.24 52.69 131.4 52.69"/><polygon class="cls-1" points="130.82 13.28 141.61 58.97 142.18 58.84 130.82 13.28"/><polygon class="cls-1" points="168.9 48.62 130.82 18.53 168.53 49.08 168.9 48.62"/><polygon class="cls-1" points="171.22 41.96 130.82 10.52 170.86 42.42 171.22 41.96"/><polygon class="cls-1" points="130.82 31.65 161.25 55.63 161.6 55.18 130.82 31.65"/><path class="cls-2" d="M229,57H97L85.89,50.57H20.31l4.08,11.66s.87,6.71,12.82,7.29,155.37,2,175.19-2.62v3.3h7.29V64l-3.11-.29-.2-1.55S228.63,60.58,229,57Z" transform="translate(44.93 1.33)"/><rect class="cls-3" x="111.29" y="44.91" width="15.16" height="7"/><rect class="cls-3" x="109.68" y="41.56" width="22.74" height="3.35"/><rect class="cls-3" x="168.13" y="48.41" width="15.74" height="9.91"/><rect class="cls-2" x="170.46" y="41.56" width="6.41" height="6.85"/><rect class="cls-3" x="147.14" y="54.68" width="14.28" height="3.64"/><path class="cls-3" d="M123.2,49.26s0,5.69-6.7,5.4V57h6.7Z" transform="translate(44.93 1.33)"/><rect class="cls-3" x="183.87" y="55.41" width="11.37" height="2.91"/><rect class="cls-3" x="197.43" y="56.86" width="4.08" height="1.46"/><rect class="cls-4" x="246.98" y="55.41" width="3.64" height="2.91"/><rect class="cls-2" x="243.34" y="55.41" width="3.64" height="2.91"/><rect class="cls-4" x="239.69" y="55.41" width="3.64" height="2.91"/><rect class="cls-2" x="245.16" y="52.49" width="3.64" height="2.92"/><rect class="cls-4" x="241.51" y="52.49" width="3.64" height="2.92"/><polygon class="cls-2" points="221.47 56.86 224.49 56.86 224.49 55.8 222.15 51.42 221.47 51.42 221.47 56.86"/><polygon class="cls-2" points="221.47 56.86 218.46 56.86 218.46 55.8 220.79 51.42 221.47 51.42 221.47 56.86"/><rect class="cls-3" x="219.97" y="56.86" width="3.01" height="1.46"/><rect class="cls-3" x="178.23" y="50.72" width="6.53" height="0.87" transform="translate(41.18 87.74) rotate(-26.52)"/><polygon class="cls-2" points="266.19 57.02 268.83 57.02 268.83 56.08 266.79 52.25 266.19 52.25 266.19 57.02"/><polygon class="cls-2" points="266.19 57.02 263.55 57.02 263.55 56.08 265.59 52.25 266.19 52.25 266.19 57.02"/><rect class="cls-3" x="264.87" y="57.02" width="2.64" height="1.28"/><rect class="cls-3" x="222.74" y="51.47" width="5.72" height="0.77" transform="translate(45.5 107.48) rotate(-26.51)"/><polygon class="cls-2" points="257.18 57.1 259.82 57.1 259.82 56.17 257.78 52.34 257.18 52.34 257.18 57.1"/><polygon class="cls-2" points="257.18 57.1 254.54 57.1 254.54 56.17 256.58 52.34 257.18 52.34 257.18 57.1"/><rect class="cls-3" x="255.86" y="57.11" width="2.64" height="1.28"/><rect class="cls-3" x="213.73" y="51.56" width="5.72" height="0.77" transform="translate(44.51 103.46) rotate(-26.51)"/><polygon class="cls-2" points="206.31 56.86 209.33 56.86 209.33 55.8 207 51.42 206.31 51.42 206.31 56.86"/><polygon class="cls-2" points="206.31 56.86 203.3 56.86 203.3 55.8 205.63 51.42 206.31 51.42 206.31 56.86"/><rect class="cls-3" x="204.81" y="56.86" width="3.01" height="1.46"/><rect class="cls-3" x="163.07" y="50.72" width="6.53" height="0.87" transform="translate(39.58 80.96) rotate(-26.51)"/><polygon class="cls-2" points="189.9 54.29 192.91 54.29 192.91 53.22 190.58 48.85 189.9 48.85 189.9 54.29"/><polygon class="cls-2" points="189.9 54.29 186.88 54.29 186.88 53.22 189.21 48.85 189.9 48.85 189.9 54.29"/><rect class="cls-3" x="188.39" y="54.29" width="3.01" height="1.46"/><rect class="cls-3" x="146.65" y="48.15" width="6.53" height="0.87" transform="translate(39.01 73.39) rotate(-26.52)"/><rect class="cls-4" x="97.68" y="45.98" width="6.03" height="3.37"/><rect class="cls-4" x="86.41" y="47.1" width="11.27" height="1.14"/><rect class="cls-4" x="99.43" y="48.07" width="2.72" height="3.84"/><rect class="cls-4" x="80.39" y="49.35" width="1.75" height="2.56"/><rect class="cls-4" x="75.44" y="50.63" width="2.33" height="1.28"/><rect class="cls-3" x="117.26" y="38.64" width="1.6" height="2.91"/><rect class="cls-3" x="115.22" y="37.48" width="5.83" height="1.17"/><rect class="cls-1" x="128.05" y="8.33" width="5.1" height="0.58"/><path class="cls-5" d="M216.4,62.3l.18,1.39,3.11.29V70.2H212.4V66.9c-19.82,4.66-163.24,3.2-175.19,2.62C26,69,24.53,63,24.4,62.3Z" transform="translate(44.93 1.33)"/><rect class="cls-5" x="170.46" y="41.56" width="6.41" height="2.48"/><rect class="cls-4" x="168.13" y="48.41" width="15.74" height="2.19"/><rect class="cls-4" x="147.14" y="56.5" width="14.28" height="1.82"/><rect class="cls-1" x="109.68" y="43.24" width="22.74" height="1.68"/><path class="cls-6" d="M25.36,55.34A1.65,1.65,0,1,0,27,53.69,1.65,1.65,0,0,0,25.36,55.34Z" transform="translate(44.93 1.33)"/><path class="cls-4" d="M86.14,60.39a1,1,0,1,0,1-1A1,1,0,0,0,86.14,60.39Z" transform="translate(44.93 1.33)"/><path class="cls-4" d="M107.27,60.39a1,1,0,0,0,2.09,0,1,1,0,1,0-2.09,0Z" transform="translate(44.93 1.33)"/><path class="cls-4" d="M110.79,60.39a1,1,0,0,0,2.09,0,1,1,0,1,0-2.09,0Z" transform="translate(44.93 1.33)"/><path class="cls-4" d="M126.34,60.39a1,1,0,0,0,2.09,0,1,1,0,1,0-2.09,0Z" transform="translate(44.93 1.33)"/><path class="cls-4" d="M129.86,60.39a1,1,0,0,0,2.09,0,1,1,0,1,0-2.09,0Z" transform="translate(44.93 1.33)"/><path class="cls-4" d="M145.4,60.39a1,1,0,1,0,1-1A1,1,0,0,0,145.4,60.39Z" transform="translate(44.93 1.33)"/><path class="cls-4" d="M148.93,60.39a1,1,0,0,0,2.09,0,1,1,0,1,0-2.09,0Z" transform="translate(44.93 1.33)"/><path class="cls-4" d="M164.47,60.39a1,1,0,1,0,1.05-1A1,1,0,0,0,164.47,60.39Z" transform="translate(44.93 1.33)"/><path class="cls-4" d="M168,60.39a1,1,0,1,0,1-1A1,1,0,0,0,168,60.39Z" transform="translate(44.93 1.33)"/><path class="cls-4" d="M183.54,60.39a1,1,0,1,0,1.05-1A1,1,0,0,0,183.54,60.39Z" transform="translate(44.93 1.33)"/><path class="cls-4" d="M187.06,60.39a1,1,0,1,0,1.05-1A1,1,0,0,0,187.06,60.39Z" transform="translate(44.93 1.33)"/><path class="cls-4" d="M202.61,60.39a1,1,0,0,0,2.09,0,1,1,0,1,0-2.09,0Z" transform="translate(44.93 1.33)"/><path class="cls-4" d="M206.13,60.39a1,1,0,1,0,1.05-1A1,1,0,0,0,206.13,60.39Z" transform="translate(44.93 1.33)"/><path class="cls-4" d="M82.08,60.39a1,1,0,0,0,2.09,0,1,1,0,1,0-2.09,0Z" transform="translate(44.93 1.33)"/><path class="cls-4" d="M78,60.39a1,1,0,1,0,1-1A1,1,0,0,0,78,60.39Z" transform="translate(44.93 1.33)"/><path class="cls-4" d="M74,60.39a1,1,0,1,0,1-1A1,1,0,0,0,74,60.39Z" transform="translate(44.93 1.33)"/><path class="cls-4" d="M69.91,60.39a1,1,0,0,0,2.09,0,1,1,0,1,0-2.09,0Z" transform="translate(44.93 1.33)"/><path class="cls-4" d="M65.85,60.39a1,1,0,1,0,1.05-1A1,1,0,0,0,65.85,60.39Z" transform="translate(44.93 1.33)"/><path class="cls-4" d="M61.8,60.39a1,1,0,0,0,2.09,0,1,1,0,1,0-2.09,0Z" transform="translate(44.93 1.33)"/><path class="cls-4" d="M57.74,60.39a1,1,0,0,0,2.09,0,1,1,0,1,0-2.09,0Z" transform="translate(44.93 1.33)"/><path class="cls-4" d="M53.68,60.39a1,1,0,1,0,1-1A1,1,0,0,0,53.68,60.39Z" transform="translate(44.93 1.33)"/><path class="cls-4" d="M49.63,60.39a1,1,0,0,0,2.09,0,1,1,0,1,0-2.09,0Z" transform="translate(44.93 1.33)"/><path class="cls-4" d="M45.57,60.39a1,1,0,0,0,2.09,0,1,1,0,1,0-2.09,0Z" transform="translate(44.93 1.33)"/><path class="cls-4" d="M41.51,60.39a1,1,0,1,0,1.05-1A1,1,0,0,0,41.51,60.39Z" transform="translate(44.93 1.33)"/><path class="cls-4" d="M37.46,60.39a1,1,0,0,0,2.09,0,1,1,0,1,0-2.09,0Z" transform="translate(44.93 1.33)"/><path class="cls-4" d="M33.4,60.39a1,1,0,1,0,1.05-1A1,1,0,0,0,33.4,60.39Z" transform="translate(44.93 1.33)"/><path class="cls-4" d="M29.35,60.39a1,1,0,1,0,1-1A1,1,0,0,0,29.35,60.39Z" transform="translate(44.93 1.33)"/><path class="cls-4" d="M25.29,60.39a1,1,0,0,0,2.09,0,1,1,0,1,0-2.09,0Z" transform="translate(44.93 1.33)"/><path id="gentle-wave" class="cls-7" d="M-44.93,80.3c30,0,58-18,88-18s58,18,88,18,58-18,88-18,58,18,88,18v44h-352Z" transform="translate(44.93 1.33)"/><path id="gentle-wave-2" data-name="gentle-wave" class="cls-8" d="M-44.93,83.3c30,0,58-18,88-18s58,18,88,18,58-18,88-18,58,18,88,18v44h-352Z" transform="translate(44.93 1.33)"/><path id="gentle-wave-3" data-name="gentle-wave" class="cls-9" d="M-44.93,86.3c30,0,58-18,88-18s58,18,88,18,58-18,88-18,58,18,88,18v44h-352Z" transform="translate(44.93 1.33)"/></svg>